<svg width="400" height="250" xmlns="http://www.w3.org/2000/svg">
  <defs>
    <linearGradient id="grad5" x1="0%" y1="0%" x2="100%" y2="100%">
      <stop offset="0%" style="stop-color:#667eea;stop-opacity:1" />
      <stop offset="100%" style="stop-color:#764ba2;stop-opacity:1" />
    </linearGradient>
  </defs>
  
  <rect width="400" height="250" fill="url(#grad5)"/>
  
  <!-- Título -->
  <text x="200" y="40" font-size="28" font-weight="bold" text-anchor="middle" fill="white">
    KANBAN
  </text>
  
  <!-- Tablero Kanban -->
  <rect x="40" y="75" width="100" height="140" fill="white" stroke="#333" stroke-width="2" rx="5"/>
  <text x="90" y="95" font-size="14" font-weight="bold" text-anchor="middle" fill="#333">Por Hacer</text>
  <rect x="50" y="105" width="80" height="35" fill="#ffebee" stroke="#333" stroke-width="1" rx="3"/>
  <text x="90" y="128" font-size="11" text-anchor="middle" fill="#333">Tarea 1</text>
  
  <rect x="150" y="75" width="100" height="140" fill="white" stroke="#333" stroke-width="2" rx="5"/>
  <text x="200" y="95" font-size="14" font-weight="bold" text-anchor="middle" fill="#333">En Progreso</text>
  <rect x="160" y="105" width="80" height="35" fill="#fff3e0" stroke="#333" stroke-width="1" rx="3"/>
  <text x="200" y="128" font-size="11" text-anchor="middle" fill="#333">Tarea 2</text>
  <rect x="160" y="145" width="80" height="35" fill="#fff3e0" stroke="#333" stroke-width="1" rx="3"/>
  <text x="200" y="168" font-size="11" text-anchor="middle" fill="#333">Tarea 3</text>
  
  <rect x="260" y="75" width="100" height="140" fill="white" stroke="#333" stroke-width="2" rx="5"/>
  <text x="310" y="95" font-size="14" font-weight="bold" text-anchor="middle" fill="#333">Hecho</text>
  <rect x="270" y="105" width="80" height="35" fill="#e8f5e9" stroke="#333" stroke-width="1" rx="3"/>
  <text x="310" y="128" font-size="11" text-anchor="middle" fill="#333">Tarea 4</text>
  <rect x="270" y="145" width="80" height="35" fill="#e8f5e9" stroke="#333" stroke-width="1" rx="3"/>
  <text x="310" y="168" font-size="11" text-anchor="middle" fill="#333">Tarea 5</text>
</svg>